{"title":"Snoop Lion Ft. Miley Cyrus - Ashtrays And Heartbreaks [Music Vid","uid":8931993,"size":139779153,"categoryP":"video","categoryS":"music_videos","magnet":"?xt=urn:btih:7ab012a8dedeb49cdf8fd1b3e2cf0f83beb1d46b&amp;dn=Snoop+Lion+Ft.+Miley+Cyrus+-+Ashtrays+And+Heartbreaks+%5BMusic+Vid&amp;tr=udp%3A%2F%2Ftracker.openbittorrent.com%3A80&amp;tr=udp%3A%2F%2Fopen.demonii.com%3A1337&amp;tr=udp%3A%2F%2Ftracker.coppersurfer.tk%3A6969&amp;tr=udp%3A%2F%2Fexodus.desync.com%3A6969","seeders":1,"leechers":0,"uploader":"Sbyky","files":1,"time":1379481373,"description":"[IMG]http://cdn.piczend.com/images/f8sK900P/1379453288_ashtraysandheartbreaks.jpg[/IMG]\n\nGeneral\nComplete name                            : Snoop Lion Ft. Miley Cyrus - Ashtrays And Heartbreaks [Music Video] 1080p [Sbyky].mp4\nFormat                                   : MPEG-4\nFormat profile                           : Base Media / Version 2\nCodec ID                                 : mp42\nFile size                                : 133 MiB\nDuration                                 : 4mn 6s\nOverall bit rate mode                    : Variable\nOverall bit rate                         : 4 531 Kbps\nEncoded date                             : UTC 2013-05-29 03:56:12\nTagged date                              : UTC 2013-05-29 03:56:12\n\nVideo\nID                                       : 1\nFormat                                   : AVC\nFormat/Info                              : Advanced Video Codec\nFormat profile                           : &lt;a class=&quot;__cf_email__&quot; href=&quot;/cdn-cgi/l/email-protection&quot; data-cfemail=&quot;175f7e707f575b233927&quot;&gt;[email&amp;#160;protected]&lt;/a&gt;&lt;script cf-hash='f9e31' type=&quot;text/javascript&quot;&gt;\n/* &lt;![CDATA[ */!function(){try{var t=&quot;currentScript&quot;in document?document.currentScript:function(){for(var t=document.getElementsByTagName(&quot;script&quot;),e=t.length;e--;)if(t[e].getAttribute(&quot;cf-hash&quot;))return t[e]}();if(t&amp;&amp;t.previousSibling){var e,r,n,i,c=t.previousSibling,a=c.getAttribute(&quot;data-cfemail&quot;);if(a){for(e=&quot;&quot;,r=parseInt(a.substr(0,2),16),n=2;a.length-n;n+=2)i=parseInt(a.substr(n,2),16)^r,e+=String.fromCharCode(i);e=document.createTextNode(e),c.parentNode.replaceChild(e,c)}}}catch(u){}}();/* ]]&gt; */&lt;/script&gt;\nFormat settings, CABAC                   : Yes\nFormat settings, ReFrames                : 1 frame\nCodec ID                                 : avc1\nCodec ID/Info                            : Advanced Video Coding\nDuration                                 : 4mn 6s\nBit rate                                 : 4 337 Kbps\nMaximum bit rate                         : 9 841 Kbps\nWidth                                    : 1 920 pixels\nHeight                                   : 1 080 pixels\nDisplay aspect ratio                     : 16:9\nFrame rate mode                          : Constant\nFrame rate                               : 23.976 fps\nColor space                              : YUV\nChroma subsampling                       : 4:2:0\nBit depth                                : 8 bits\nScan type                                : Progressive\nBits/(Pixel*Frame)                       : 0.087\nStream size                              : 128 MiB (96%)\nTagged date                              : UTC 2013-05-29 03:56:20\n\nAudio\nID                                       : 2\nFormat                                   : AAC\nFormat/Info                              : Advanced Audio Codec\nFormat profile                           : LC\nCodec ID                                 : 40\nDuration                                 : 4mn 6s\nBit rate mode                            : Variable\nBit rate                                 : 192 Kbps\nMaximum bit rate                         : 201 Kbps\nChannel(s)                               : 2 channels\nChannel positions                        : Front: L R\nSampling rate                            : 44.1 KHz\nCompression mode                         : Lossy\nStream size                              : 5.65 MiB (4%)\nTitle                                    : IsoMedia File Produced by Google, 5-11-2011\nEncoded date                             : UTC 2013-05-29 03:56:18\nTagged date                              : UTC 2013-05-29 03:56:20\n\nShared By Sbyky\n[IMG]http://cdn.piczend.com/images/X3Ag13N3/1379453786_saythanks.gif[/IMG]\n[IMG]http://cdn.piczend.com/images/gGqhX2S8/1379453780_keepseeding.gif[/IMG]","torrent":{"xt":"urn:btih:7ab012a8dedeb49cdf8fd1b3e2cf0f83beb1d46b","amp;dn":"Snoop+Lion+Ft.+Miley+Cyrus+-+Ashtrays+And+Heartbreaks+%5BMusic+Vid","amp;tr":["udp%3A%2F%2Ftracker.openbittorrent.com%3A80","udp%3A%2F%2Fopen.demonii.com%3A1337","udp%3A%2F%2Ftracker.coppersurfer.tk%3A6969","udp%3A%2F%2Fexodus.desync.com%3A6969"],"infoHash":"7ab012a8dedeb49cdf8fd1b3e2cf0f83beb1d46b","infoHashBuffer":{"type":"Buffer","data":[122,176,18,168,222,222,180,156,223,143,209,179,226,207,15,131,190,177,212,107]},"announce":[],"urlList":[]}}